REM DIRINDEX 1\2,1\3
REM DIRNAME cjc116,folder01,folder02
TITLE ""
FILE "Disc1Track06.mp3" MP3
  TRACK 01 AUDIO
    TITLE "0:"
    INDEX 01 00:00:00
  TRACK 02 AUDIO
    TITLE "3:cjc116_0712"
    INDEX 01 00:00:09
  TRACK 03 AUDIO
    TITLE "0:"
    INDEX 01 00:01:48
  TRACK 04 AUDIO
    TITLE "2:cjc116_0713"
    INDEX 01 00:02:32
  TRACK 05 AUDIO
    TITLE "0:"
    INDEX 01 00:03:12
  TRACK 06 AUDIO
    TITLE "2:cjc116_0714"
    INDEX 01 00:03:47
  TRACK 07 AUDIO
    TITLE "0:"
    INDEX 01 00:05:71
  TRACK 08 AUDIO
    TITLE "2:cjc116_0715"
    INDEX 01 00:06:33
  TRACK 09 AUDIO
    TITLE "0:"
    INDEX 01 00:09:24
  TRACK 10 AUDIO
    TITLE "2:cjc116_0716"
    INDEX 01 00:09:71
  TRACK 11 AUDIO
    TITLE "0:"
    INDEX 01 00:10:61
  TRACK 12 AUDIO
    TITLE "2:cjc116_0717"
    INDEX 01 00:11:11
  TRACK 13 AUDIO
    TITLE "0:"
    INDEX 01 00:13:28
  TRACK 14 AUDIO
    TITLE "2:cjc116_0718"
    INDEX 01 00:13:71
  TRACK 15 AUDIO
    TITLE "0:"
    INDEX 01 00:16:65
  TRACK 16 AUDIO
    TITLE "2:cjc116_0719"
    INDEX 01 00:17:33
  TRACK 17 AUDIO
    TITLE "0:"
    INDEX 01 00:18:31
  TRACK 18 AUDIO
    TITLE "2:cjc116_0720"
    INDEX 01 00:18:62
  TRACK 19 AUDIO
    TITLE "0:"
    INDEX 01 00:20:20
  TRACK 20 AUDIO
    TITLE "2:cjc116_0721"
    INDEX 01 00:20:57
  TRACK 21 AUDIO
    TITLE "0:"
    INDEX 01 00:22:13
  TRACK 22 AUDIO
    TITLE "2:cjc116_0722"
    INDEX 01 00:22:52
  TRACK 23 AUDIO
    TITLE "0:"
    INDEX 01 00:23:69
  TRACK 24 AUDIO
    TITLE "2:cjc116_0723"
    INDEX 01 00:24:14
  TRACK 25 AUDIO
    TITLE "0:"
    INDEX 01 00:26:11
  TRACK 26 AUDIO
    TITLE "2:cjc116_0724"
    INDEX 01 00:26:42
  TRACK 27 AUDIO
    TITLE "0:"
    INDEX 01 00:28:39
  TRACK 28 AUDIO
    TITLE "2:cjc116_0725"
    INDEX 01 00:29:07
  TRACK 29 AUDIO
    TITLE "0:"
    INDEX 01 00:30:26
  TRACK 30 AUDIO
    TITLE "2:cjc116_0726"
    INDEX 01 00:30:52
  TRACK 31 AUDIO
    TITLE "0:"
    INDEX 01 00:32:33
  TRACK 32 AUDIO
    TITLE "2:cjc116_0727"
    INDEX 01 00:32:72
  TRACK 33 AUDIO
    TITLE "0:"
    INDEX 01 00:35:17
  TRACK 34 AUDIO
    TITLE "2:cjc116_0728"
    INDEX 01 00:35:57
  TRACK 35 AUDIO
    TITLE "0:"
    INDEX 01 00:36:70
  TRACK 36 AUDIO
    TITLE "2:cjc116_0729"
    INDEX 01 00:37:14
  TRACK 37 AUDIO
    TITLE "0:"
    INDEX 01 00:38:47
  TRACK 38 AUDIO
    TITLE "2:cjc116_0730"
    INDEX 01 00:39:11
  TRACK 39 AUDIO
    TITLE "0:"
    INDEX 01 00:40:42
  TRACK 40 AUDIO
    TITLE "2:cjc116_0731"
    INDEX 01 00:41:06
  TRACK 41 AUDIO
    TITLE "0:"
    INDEX 01 00:42:23
  TRACK 42 AUDIO
    TITLE "2:cjc116_0732"
    INDEX 01 00:42:43
  TRACK 43 AUDIO
    TITLE "0:"
    INDEX 01 00:44:44
  TRACK 44 AUDIO
    TITLE "2:cjc116_0733"
    INDEX 01 00:45:02
  TRACK 45 AUDIO
    TITLE "0:"
    INDEX 01 00:46:31
  TRACK 46 AUDIO
    TITLE "2:cjc116_0734"
    INDEX 01 00:46:72
  TRACK 47 AUDIO
    TITLE "0:"
    INDEX 01 00:48:14
  TRACK 48 AUDIO
    TITLE "2:cjc116_0735"
    INDEX 01 00:48:38
  TRACK 49 AUDIO
    TITLE "0:"
    INDEX 01 00:51:28
  TRACK 50 AUDIO
    TITLE "2:cjc116_0736"
    INDEX 01 00:51:52
  TRACK 51 AUDIO
    TITLE "0:"
    INDEX 01 00:54:21
  TRACK 52 AUDIO
    TITLE "2:cjc116_0737"
    INDEX 01 00:54:64
  TRACK 53 AUDIO
    TITLE "0:"
    INDEX 01 00:55:67
  TRACK 54 AUDIO
    TITLE "2:cjc116_0738"
    INDEX 01 00:56:18
  TRACK 55 AUDIO
    TITLE "0:"
    INDEX 01 00:58:05
  TRACK 56 AUDIO
    TITLE "2:cjc116_0739"
    INDEX 01 00:58:42
  TRACK 57 AUDIO
    TITLE "0:"
    INDEX 01 01:00:68
  TRACK 58 AUDIO
    TITLE "2:cjc116_0740"
    INDEX 01 01:01:33
  TRACK 59 AUDIO
    TITLE "0:"
    INDEX 01 01:02:40
  TRACK 60 AUDIO
    TITLE "2:cjc116_0741"
    INDEX 01 01:02:67
  TRACK 61 AUDIO
    TITLE "0:"
    INDEX 01 01:04:33
  TRACK 62 AUDIO
    TITLE "2:cjc116_0742"
    INDEX 01 01:05:01
  TRACK 63 AUDIO
    TITLE "0:"
    INDEX 01 01:06:65
  TRACK 64 AUDIO
    TITLE "2:cjc116_0743"
    INDEX 01 01:07:31
  TRACK 65 AUDIO
    TITLE "0:"
    INDEX 01 01:08:40
  TRACK 66 AUDIO
    TITLE "2:cjc116_0744"
    INDEX 01 01:08:62
  TRACK 67 AUDIO
    TITLE "0:"
    INDEX 01 01:10:41
  TRACK 68 AUDIO
    TITLE "2:cjc116_0745"
    INDEX 01 01:10:73
  TRACK 69 AUDIO
    TITLE "0:"
    INDEX 01 01:12:60
  TRACK 70 AUDIO
    TITLE "2:cjc116_0746"
    INDEX 01 01:13:24
  TRACK 71 AUDIO
    TITLE "0:"
    INDEX 01 01:14:33
  TRACK 72 AUDIO
    TITLE "2:cjc116_0747"
    INDEX 01 01:14:41
  TRACK 73 AUDIO
    TITLE "0:"
    INDEX 01 01:18:31
  TRACK 74 AUDIO
    TITLE "2:cjc116_0748"
    INDEX 01 01:18:64
  TRACK 75 AUDIO
    TITLE "0:"
    INDEX 01 01:22:52
  TRACK 76 AUDIO
    TITLE "2:cjc116_0749"
    INDEX 01 01:23:18
  TRACK 77 AUDIO
    TITLE "0:"
    INDEX 01 01:24:32
  TRACK 78 AUDIO
    TITLE "2:cjc116_0750"
    INDEX 01 01:24:61
  TRACK 79 AUDIO
    TITLE "0:"
    INDEX 01 01:26:46
  TRACK 80 AUDIO
    TITLE "2:cjc116_0751"
    INDEX 01 01:27:10
  TRACK 81 AUDIO
    TITLE "0:"
    INDEX 01 01:28:65
  TRACK 82 AUDIO
    TITLE "2:cjc116_0752"
    INDEX 01 01:29:31
  TRACK 83 AUDIO
    TITLE "0:"
    INDEX 01 01:30:48
  TRACK 84 AUDIO
    TITLE "2:cjc116_0753"
    INDEX 01 01:30:73
  TRACK 85 AUDIO
    TITLE "0:"
    INDEX 01 01:33:42
  TRACK 86 AUDIO
    TITLE "2:cjc116_0754"
    INDEX 01 01:34:01
  TRACK 87 AUDIO
    TITLE "0:"
    INDEX 01 01:36:29
  TRACK 88 AUDIO
    TITLE "2:cjc116_0755"
    INDEX 01 01:36:74
  TRACK 89 AUDIO
    TITLE "0:"
    INDEX 01 01:38:14
  TRACK 90 AUDIO
    TITLE "2:cjc116_0756"
    INDEX 01 01:38:24
  TRACK 91 AUDIO
    TITLE "0:"
    INDEX 01 01:40:38
  TRACK 92 AUDIO
    TITLE "2:cjc116_0757"
    INDEX 01 01:40:70
  TRACK 93 AUDIO
    TITLE "0:"
    INDEX 01 01:42:59
  TRACK 94 AUDIO
    TITLE "2:cjc116_0758"
    INDEX 01 01:43:15
  TRACK 95 AUDIO
    TITLE "0:"
    INDEX 01 01:44:56
  TRACK 96 AUDIO
    TITLE "2:cjc116_0759"
    INDEX 01 01:45:10
  TRACK 97 AUDIO
    TITLE "0:"
    INDEX 01 01:47:44
  TRACK 98 AUDIO
    TITLE "2:cjc116_0760"
    INDEX 01 01:47:74
  TRACK 99 AUDIO
    TITLE "0:"
    INDEX 01 01:49:73
  TRACK 100 AUDIO
    TITLE "2:cjc116_0761"
    INDEX 01 01:50:39
  TRACK 101 AUDIO
    TITLE "0:"
    INDEX 01 01:51:44
  TRACK 102 AUDIO
    TITLE "2:cjc116_0762"
    INDEX 01 01:51:70
  TRACK 103 AUDIO
    TITLE "0:"
    INDEX 01 01:53:51
  TRACK 104 AUDIO
    TITLE "2:cjc116_0763"
    INDEX 01 01:54:09
  TRACK 105 AUDIO
    TITLE "0:"
    INDEX 01 01:56:08
  TRACK 106 AUDIO
    TITLE "2:cjc116_0764"
    INDEX 01 01:56:47
  TRACK 107 AUDIO
    TITLE "0:"
    INDEX 01 01:57:45
  TRACK 108 AUDIO
    TITLE "2:cjc116_0765"
    INDEX 01 01:57:66
  TRACK 109 AUDIO
    TITLE "0:"
    INDEX 01 02:00:41
  TRACK 110 AUDIO
    TITLE "2:cjc116_0766"
    INDEX 01 02:01:01
  TRACK 111 AUDIO
    TITLE "0:"
    INDEX 01 02:03:16
  TRACK 112 AUDIO
    TITLE "2:cjc116_0767"
    INDEX 01 02:03:57
  TRACK 113 AUDIO
    TITLE "0:"
    INDEX 01 02:04:70
  TRACK 114 AUDIO
    TITLE "2:cjc116_0768"
    INDEX 01 02:05:21
  TRACK 115 AUDIO
    TITLE "0:"
    INDEX 01 02:07:04
  TRACK 116 AUDIO
    TITLE "2:cjc116_0769"
    INDEX 01 02:07:39
  TRACK 117 AUDIO
    TITLE "0:"
    INDEX 01 02:10:36
  TRACK 118 AUDIO
    TITLE "2:cjc116_0770"
    INDEX 01 02:11:02
  TRACK 119 AUDIO
    TITLE "0:"
    INDEX 01 02:11:63
  TRACK 120 AUDIO
    TITLE "2:cjc116_0771"
    INDEX 01 02:12:17
  TRACK 121 AUDIO
    TITLE "0:"
    INDEX 01 02:13:69
  TRACK 122 AUDIO
    TITLE "2:cjc116_0772"
    INDEX 01 02:14:30
  TRACK 123 AUDIO
    TITLE "0:"
    INDEX 01 02:16:13
  TRACK 124 AUDIO
    TITLE "2:cjc116_0773"
    INDEX 01 02:16:54
  TRACK 125 AUDIO
    TITLE "0:"
    INDEX 01 02:17:59
  TRACK 126 AUDIO
    TITLE "2:cjc116_0774"
    INDEX 01 02:18:12
  TRACK 127 AUDIO
    TITLE "0:"
    INDEX 01 02:19:72
  TRACK 128 AUDIO
    TITLE "2:cjc116_0775"
    INDEX 01 02:20:32
  TRACK 129 AUDIO
    TITLE "0:"
    INDEX 01 02:22:47
  TRACK 130 AUDIO
    TITLE "2:cjc116_0776"
    INDEX 01 02:23:07
  TRACK 131 AUDIO
    TITLE "0:"
    INDEX 01 02:24:16
  TRACK 132 AUDIO
    TITLE "2:cjc116_0777"
    INDEX 01 02:24:34
  TRACK 133 AUDIO
    TITLE "0:"
    INDEX 01 02:26:05
  TRACK 134 AUDIO
    TITLE "2:cjc116_0778"
    INDEX 01 02:26:37
  TRACK 135 AUDIO
    TITLE "0:"
    INDEX 01 02:27:46
  TRACK 136 AUDIO
    TITLE "2:cjc116_0779"
    INDEX 01 02:28:10
  TRACK 137 AUDIO
    TITLE "0:"
    INDEX 01 02:29:17
  TRACK 138 AUDIO
    TITLE "2:cjc116_0780"
    INDEX 01 02:29:29
  TRACK 139 AUDIO
    TITLE "0:"
    INDEX 01 02:30:62
  TRACK 140 AUDIO
    TITLE "2:cjc116_0781"
    INDEX 01 02:31:34
  TRACK 141 AUDIO
    TITLE "0:"
    INDEX 01 02:33:39
  TRACK 142 AUDIO
    TITLE "2:cjc116_0782"
    INDEX 01 02:34:03
  TRACK 143 AUDIO
    TITLE "0:"
    INDEX 01 02:35:34
  TRACK 144 AUDIO
    TITLE "2:cjc116_0783"
    INDEX 01 02:35:51
  TRACK 145 AUDIO
    TITLE "0:"
    INDEX 01 02:37:52
  TRACK 146 AUDIO
    TITLE "2:cjc116_0784"
    INDEX 01 02:38:03
  TRACK 147 AUDIO
    TITLE "0:"
    INDEX 01 02:39:67
  TRACK 148 AUDIO
    TITLE "2:cjc116_0785"
    INDEX 01 02:40:29
  TRACK 149 AUDIO
    TITLE "0:"
    INDEX 01 02:41:52
  TRACK 150 AUDIO
    TITLE "2:cjc116_0786"
    INDEX 01 02:41:66
  TRACK 151 AUDIO
    TITLE "0:"
    INDEX 01 02:43:61
  TRACK 152 AUDIO
    TITLE "2:cjc116_0787"
    INDEX 01 02:44:25
  TRACK 153 AUDIO
    TITLE "0:"
    INDEX 01 02:46:55
  TRACK 154 AUDIO
    TITLE "2:cjc116_0788"
    INDEX 01 02:47:13
  TRACK 155 AUDIO
    TITLE "0:"
    INDEX 01 02:48:32
  TRACK 156 AUDIO
    TITLE "2:cjc116_0789"
    INDEX 01 02:48:42
  TRACK 157 AUDIO
    TITLE "0:"
    INDEX 01 02:50:14
  TRACK 158 AUDIO
    TITLE "2:cjc116_0790"
    INDEX 01 02:50:41
  TRACK 159 AUDIO
    TITLE "0:"
    INDEX 01 02:51:68
  TRACK 160 AUDIO
    TITLE "2:cjc116_0791"
    INDEX 01 02:52:36
  TRACK 161 AUDIO
    TITLE "0:"
    INDEX 01 02:53:51
  TRACK 162 AUDIO
    TITLE "2:cjc116_0792"
    INDEX 01 02:53:69
  TRACK 163 AUDIO
    TITLE "0:"
    INDEX 01 02:55:56
  TRACK 164 AUDIO
    TITLE "2:cjc116_0793"
    INDEX 01 02:56:14
  TRACK 165 AUDIO
    TITLE "0:"
    INDEX 01 02:58:58
  TRACK 166 AUDIO
    TITLE "2:cjc116_0794"
    INDEX 01 02:59:24
  TRACK 167 AUDIO
    TITLE "0:"
    INDEX 01 03:00:51
  TRACK 168 AUDIO
    TITLE "2:cjc116_0795"
    INDEX 01 03:00:61
  TRACK 169 AUDIO
    TITLE "0:"
    INDEX 01 03:02:42
  TRACK 170 AUDIO
    TITLE "2:cjc116_0796"
    INDEX 01 03:03:01
  TRACK 171 AUDIO
    TITLE "0:"
    INDEX 01 03:04:57
  TRACK 172 AUDIO
    TITLE "2:cjc116_0797"
    INDEX 01 03:05:23
  TRACK 173 AUDIO
    TITLE "0:"
    INDEX 01 03:06:40
  TRACK 174 AUDIO
    TITLE "2:cjc116_0798"
    INDEX 01 03:06:62
  TRACK 175 AUDIO
    TITLE "0:"
    INDEX 01 03:08:59
  TRACK 176 AUDIO
    TITLE "2:cjc116_0799"
    INDEX 01 03:09:11
  TRACK 177 AUDIO
    TITLE "0:"
    INDEX 01 03:11:00
  TRACK 178 AUDIO
    TITLE "2:cjc116_0800"
    INDEX 01 03:11:41
  TRACK 179 AUDIO
    TITLE "0:"
    INDEX 01 03:12:37
  TRACK 180 AUDIO
    TITLE "2:cjc116_0801"
    INDEX 01 03:12:66
  TRACK 181 AUDIO
    TITLE "0:"
    INDEX 01 03:14:34
  TRACK 182 AUDIO
    TITLE "2:cjc116_0802"
    INDEX 01 03:15:02
  TRACK 183 AUDIO
    TITLE "0:"
    INDEX 01 03:16:21
  TRACK 184 AUDIO
    TITLE "2:cjc116_0803"
    INDEX 01 03:16:64
  TRACK 185 AUDIO
    TITLE "0:"
    INDEX 01 03:18:08
  TRACK 186 AUDIO
    TITLE "2:cjc116_0804"
    INDEX 01 03:18:28
  TRACK 187 AUDIO
    TITLE "0:"
    INDEX 01 03:20:56
  TRACK 188 AUDIO
    TITLE "2:cjc116_0805"
    INDEX 01 03:21:12
  TRACK 189 AUDIO
    TITLE "0:"
    INDEX 01 03:23:07
  TRACK 190 AUDIO
    TITLE "2:cjc116_0806"
    INDEX 01 03:23:52
  TRACK 191 AUDIO
    TITLE "0:"
    INDEX 01 03:24:48
  TRACK 192 AUDIO
    TITLE "2:cjc116_0807"
    INDEX 01 03:24:61
  TRACK 193 AUDIO
    TITLE "0:"
    INDEX 01 03:26:62
  TRACK 194 AUDIO
    TITLE "2:cjc116_0808"
    INDEX 01 03:27:19
  TRACK 195 AUDIO
    TITLE "0:"
    INDEX 01 03:29:31
  TRACK 196 AUDIO
    TITLE "2:cjc116_0809"
    INDEX 01 03:29:74
  TRACK 197 AUDIO
    TITLE "0:"
    INDEX 01 03:30:56
  TRACK 198 AUDIO
    TITLE "2:cjc116_0810"
    INDEX 01 03:31:13
  TRACK 199 AUDIO
    TITLE "0:"
    INDEX 01 03:33:11
  TRACK 200 AUDIO
    TITLE "2:cjc116_0811"
    INDEX 01 03:33:55
  TRACK 201 AUDIO
    TITLE "0:"
    INDEX 01 03:35:57
  TRACK 202 AUDIO
    TITLE "2:cjc116_0812"
    INDEX 01 03:36:24
  TRACK 203 AUDIO
    TITLE "0:"
    INDEX 01 03:37:29
  TRACK 204 AUDIO
    TITLE "2:cjc116_0813"
    INDEX 01 03:37:43
  TRACK 205 AUDIO
    TITLE "0:"
    INDEX 01 03:39:10
  TRACK 206 AUDIO
    TITLE "2:cjc116_0814"
    INDEX 01 03:39:43
  TRACK 207 AUDIO
    TITLE "0:"
    INDEX 01 03:40:53
  TRACK 208 AUDIO
    TITLE "2:cjc116_0815"
    INDEX 01 03:41:19
  TRACK 209 AUDIO
    TITLE "0:"
    INDEX 01 03:42:14
  TRACK 210 AUDIO
    TITLE "2:cjc116_0816"
    INDEX 01 03:42:38
  TRACK 211 AUDIO
    TITLE "0:"
    INDEX 01 03:44:09
  TRACK 212 AUDIO
    TITLE "2:cjc116_0817"
    INDEX 01 03:44:35
  TRACK 213 AUDIO
    TITLE "0:"
    INDEX 01 03:45:73
  TRACK 214 AUDIO
    TITLE "2:cjc116_0818"
    INDEX 01 03:46:32
  TRACK 215 AUDIO
    TITLE "0:"
    INDEX 01 03:47:47
  TRACK 216 AUDIO
    TITLE "2:cjc116_0819"
    INDEX 01 03:47:74
  TRACK 217 AUDIO
    TITLE "0:"
    INDEX 01 03:50:33
  TRACK 218 AUDIO
    TITLE "2:cjc116_0820"
    INDEX 01 03:51:00
  TRACK 219 AUDIO
    TITLE "0:"
    INDEX 01 03:53:63
